# xmcd CD database file
#
# Track frame offsets:
#	150
#	11918
#	21367
#	40088
#	53621
#	67555
#	81456
#	95125
#	112957
#	132279
#	139829
#	150945
#
# Disc length: 2194 seconds
#
# Revision: 0
# Processed by: cddbd v1.5.2PL0 Copyright (c) Steve Scherf et al.
# Submitted via: CDex 1.70beta2
#
DISCID=9408900c
DTITLE=Various Artist - Dinner Party Jazz( Disk 1)
DYEAR=2005
DGENRE=Jazz
TTITLE0=A Ticket A Ticket - Ella Fitzgerald
TTITLE1=Jeepers Creepers - Tony Bennett
TTITLE2=Midriff - Duke Ellington and His Orchestra
TTITLE3=Strollin With Some Barecue - Louis Armatrong 
TTITLE4=A String Of Perals - Glemn Miller  and His Orchestra
TTITLE5=My Romance - Stan Getz Quartet
TTITLE6=Time After Time - Sarah Vaughn
TTITLE7=Honeysuckle Rose - Benny Goodman and His Orchestra
TTITLE8=Darn That Dream - Miles Davis
TTITLE9=More - Lena Horne
TTITLE10=I'm Getting Sentimental Over You - Mel Torme'
TTITLE11=Cherry - Harry James  and His Orchestra
EXTD=YEAR: 2005
EXTT0=
EXTT1=
EXTT2=
EXTT3=
EXTT4=
EXTT5=
EXTT6=
EXTT7=
EXTT8=
EXTT9=
EXTT10=
EXTT11=
PLAYORDER=
